<svg width="900" height="1200" viewBox="0 0 900 1200" fill="none" xmlns="http://www.w3.org/2000/svg">
  <rect width="900" height="1200" fill="#88B4D4"/>
  <rect x="0" y="0" width="900" height="280" fill="#9ED8F7"/>
  <rect x="88" y="110" width="236" height="122" rx="16" fill="#4E93C8"/>
  <rect x="342" y="126" width="186" height="104" rx="16" fill="#5CC3E7"/>
  <rect x="564" y="96" width="212" height="136" rx="16" fill="#F0D8A8"/>
  <rect x="0" y="280" width="900" height="920" fill="url(#paint0_linear_2_2)"/>
  <circle cx="306" cy="784" r="120" fill="#F7C363"/>
  <circle cx="342" cy="684" r="82" fill="#EBCFAD"/>
  <circle cx="598" cy="692" r="78" fill="#EAD0B3"/>
  <path d="M275 929C275 929 196 671 312 538" stroke="#2963A0" stroke-width="18" stroke-linecap="round"/>
  <path d="M641 911C641 911 706 697 628 565" stroke="#2963A0" stroke-width="18" stroke-linecap="round"/>
  <rect x="188" y="462" width="198" height="446" rx="18" fill="#F0E8E0"/>
  <rect x="510" y="446" width="188" height="472" rx="18" fill="#F0E8E0"/>
  <rect x="230" y="552" width="112" height="214" rx="10" fill="#2A6FBB"/>
  <rect x="545" y="542" width="110" height="226" rx="10" fill="#2A6FBB"/>
  <defs>
    <linearGradient id="paint0_linear_2_2" x1="450" y1="280" x2="450" y2="1200" gradientUnits="userSpaceOnUse">
      <stop stop-color="#C9DBE6"/>
      <stop offset="1" stop-color="#718EA3"/>
    </linearGradient>
  </defs>
</svg>
