<svg width="704" height="864" viewBox="0 0 704 864" fill="none" xmlns="http://www.w3.org/2000/svg">
  <rect width="704" height="864" fill="#F4F4F4"/>
  <rect x="34" y="42" width="636" height="74" fill="#E0E0E0"/>
  <circle cx="92" cy="79" r="22" fill="#C9C9C9"/>
  <rect x="136" y="62" width="222" height="14" fill="#BDBDBD"/>
  <rect x="136" y="88" width="164" height="10" fill="#CDCDCD"/>
  <rect x="34" y="146" width="636" height="464" fill="url(#paint0_linear_4_2)"/>
  <circle cx="192" cy="412" r="166" fill="#8A461B"/>
  <path d="M234 278C234 278 134 408 228 570" stroke="#111" stroke-width="26" stroke-linecap="round"/>
  <rect x="374" y="234" width="192" height="52" fill="#111" fill-opacity="0.6"/>
  <rect x="374" y="310" width="226" height="18" fill="white" fill-opacity="0.9"/>
  <rect x="374" y="342" width="194" height="18" fill="white" fill-opacity="0.75"/>
  <rect x="374" y="376" width="160" height="18" fill="white" fill-opacity="0.75"/>
  <rect x="374" y="480" width="164" height="34" rx="17" fill="#129DDA"/>
  <rect x="34" y="646" width="636" height="176" fill="white"/>
  <rect x="58" y="676" width="262" height="18" fill="#C8C8C8"/>
  <rect x="58" y="712" width="582" height="16" fill="#D4D4D4"/>
  <rect x="58" y="742" width="532" height="16" fill="#D4D4D4"/>
  <defs>
    <linearGradient id="paint0_linear_4_2" x1="352" y1="146" x2="352" y2="610" gradientUnits="userSpaceOnUse">
      <stop stop-color="#1F1F1F"/>
      <stop offset="1" stop-color="#515151"/>
    </linearGradient>
  </defs>
</svg>
